<mxfile host="app.diagrams.net" modified="2023-06-29T05:49:54.492Z" agent="Mozilla/5.0 (Windows NT 10.0; Win64; x64) AppleWebKit/537.36 (KHTML, like Gecko) Chrome/114.0.0.0 Safari/537.36" etag="Nqo9u5yH9nohFSaRqzFb" version="21.2.9" type="github">
  <diagram name="Page-1" id="mWCNj9ge6-Y0e8Chet4u">
    <mxGraphModel dx="1728" dy="930" grid="1" gridSize="10" guides="1" tooltips="1" connect="1" arrows="1" fold="1" page="1" pageScale="1" pageWidth="827" pageHeight="1169" math="0" shadow="0">
      <root>
        <mxCell id="0" />
        <mxCell id="1" parent="0" />
        <mxCell id="9FREwHzOWc3PfI8zNOFP-3" value="工商银行" style="text;html=1;strokeColor=none;fillColor=none;align=center;verticalAlign=middle;whiteSpace=wrap;rounded=0;" vertex="1" parent="1">
          <mxGeometry x="287.5" y="170" width="60" height="30" as="geometry" />
        </mxCell>
        <mxCell id="9FREwHzOWc3PfI8zNOFP-4" value="华夏银行" style="text;html=1;strokeColor=none;fillColor=none;align=center;verticalAlign=middle;whiteSpace=wrap;rounded=0;" vertex="1" parent="1">
          <mxGeometry x="513.25" y="170" width="60" height="30" as="geometry" />
        </mxCell>
        <mxCell id="9FREwHzOWc3PfI8zNOFP-5" value="" style="rounded=0;whiteSpace=wrap;html=1;" vertex="1" parent="1">
          <mxGeometry x="200" y="290" width="450" height="60" as="geometry" />
        </mxCell>
        <mxCell id="9FREwHzOWc3PfI8zNOFP-6" value="" style="outlineConnect=0;dashed=0;verticalLabelPosition=bottom;verticalAlign=top;align=center;html=1;shape=mxgraph.aws3.assignment_task;fillColor=#ACACAC;gradientColor=none;" vertex="1" parent="1">
          <mxGeometry x="253.5" y="390" width="46.5" height="63" as="geometry" />
        </mxCell>
        <mxCell id="9FREwHzOWc3PfI8zNOFP-7" value="" style="outlineConnect=0;dashed=0;verticalLabelPosition=bottom;verticalAlign=top;align=center;html=1;shape=mxgraph.aws3.assignment_task;fillColor=#ACACAC;gradientColor=none;" vertex="1" parent="1">
          <mxGeometry x="390" y="390" width="46.5" height="63" as="geometry" />
        </mxCell>
        <mxCell id="9FREwHzOWc3PfI8zNOFP-8" value="" style="outlineConnect=0;dashed=0;verticalLabelPosition=bottom;verticalAlign=top;align=center;html=1;shape=mxgraph.aws3.assignment_task;fillColor=#ACACAC;gradientColor=none;" vertex="1" parent="1">
          <mxGeometry x="516.75" y="390" width="46.5" height="63" as="geometry" />
        </mxCell>
        <mxCell id="9FREwHzOWc3PfI8zNOFP-9" value="双利基金" style="text;html=1;strokeColor=none;fillColor=none;align=center;verticalAlign=middle;whiteSpace=wrap;rounded=0;" vertex="1" parent="1">
          <mxGeometry x="246.75" y="470" width="60" height="30" as="geometry" />
        </mxCell>
        <mxCell id="9FREwHzOWc3PfI8zNOFP-10" value="双兴基金" style="text;html=1;strokeColor=none;fillColor=none;align=center;verticalAlign=middle;whiteSpace=wrap;rounded=0;" vertex="1" parent="1">
          <mxGeometry x="390" y="470" width="60" height="30" as="geometry" />
        </mxCell>
        <mxCell id="9FREwHzOWc3PfI8zNOFP-11" value="" style="shape=image;html=1;verticalAlign=top;verticalLabelPosition=bottom;labelBackgroundColor=#ffffff;imageAspect=0;aspect=fixed;image=https://cdn4.iconfinder.com/data/icons/48-bubbles/48/04.Bank-128.png" vertex="1" parent="1">
          <mxGeometry x="277.5" y="195" width="80" height="80" as="geometry" />
        </mxCell>
        <mxCell id="9FREwHzOWc3PfI8zNOFP-12" value="" style="shape=image;html=1;verticalAlign=top;verticalLabelPosition=bottom;labelBackgroundColor=#ffffff;imageAspect=0;aspect=fixed;image=https://cdn4.iconfinder.com/data/icons/48-bubbles/48/04.Bank-128.png" vertex="1" parent="1">
          <mxGeometry x="503.25" y="190" width="80" height="80" as="geometry" />
        </mxCell>
        <mxCell id="9FREwHzOWc3PfI8zNOFP-15" value="我需要债券评级为AAA，剩余期限大于2年的债券，总金额不能超过10亿，总的债券&lt;br&gt;个数不能超过7个" style="shape=callout;whiteSpace=wrap;html=1;perimeter=calloutPerimeter;" vertex="1" parent="1">
          <mxGeometry x="220" y="70" width="170" height="100" as="geometry" />
        </mxCell>
        <mxCell id="9FREwHzOWc3PfI8zNOFP-16" value="我需要债券评级为AA+，并且不能是永续债，总金额不能超过20亿，总的债券个数不能超过3个" style="shape=callout;whiteSpace=wrap;html=1;perimeter=calloutPerimeter;" vertex="1" parent="1">
          <mxGeometry x="458.25" y="70" width="170" height="100" as="geometry" />
        </mxCell>
        <mxCell id="9FREwHzOWc3PfI8zNOFP-17" value="双豪基金" style="text;html=1;strokeColor=none;fillColor=none;align=center;verticalAlign=middle;whiteSpace=wrap;rounded=0;" vertex="1" parent="1">
          <mxGeometry x="513.25" y="470" width="60" height="30" as="geometry" />
        </mxCell>
        <mxCell id="9FREwHzOWc3PfI8zNOFP-18" value="交易员" style="shape=umlActor;verticalLabelPosition=bottom;verticalAlign=top;html=1;outlineConnect=0;" vertex="1" parent="1">
          <mxGeometry x="710" y="280" width="30" height="60" as="geometry" />
        </mxCell>
      </root>
    </mxGraphModel>
  </diagram>
</mxfile>
